<?xml version="1.0" encoding="UTF-8"?>
<svg version="1.1" xmlns="http://www.w3.org/2000/svg" width="200" height="71">
<path d="M0 0 C5.56145986 4.43565827 9.53361686 10.57268035 11.75 17.3125 C13.00657194 28.59242486 10.41576753 36.73510384 3.44140625 45.52734375 C-2.35275659 51.64266111 -10.48861222 54.80235131 -18.75 55.6875 C-23.23949937 55.20648221 -27.06920086 53.9761398 -31.25 52.3125 C-31.93320312 52.05726562 -32.61640625 51.80203125 -33.3203125 51.5390625 C-40.38588046 48.51887855 -46.04796522 42.61535762 -49.25 35.625 C-51.8401474 26.90483707 -51.31361402 18.06375061 -47.375 9.875 C-42.65728467 1.42479503 -36.80305241 -2.82836353 -27.625 -5.625 C-17.11258316 -7.98402762 -8.92312526 -6.11336253 0 0 Z M-25.25 -1.6875 C-30.1881584 0.84389915 -30.1881584 0.84389915 -32.89630127 5.37606812 C-33.10998508 7.91408745 -33.11578441 10.37198994 -33.0390625 12.91796875 C-33.03627289 13.83838455 -33.03348328 14.75880035 -33.03060913 15.70710754 C-33.0178758 17.64630708 -32.9882681 19.58546002 -32.94287109 21.52416992 C-32.8749833 24.50073205 -32.86087259 27.47390428 -32.85546875 30.45117188 C-32.83647474 32.33597178 -32.81444467 34.22074405 -32.7890625 36.10546875 C-32.78258698 36.99815964 -32.77611145 37.89085052 -32.7694397 38.81059265 C-32.74707245 39.63517471 -32.7247052 40.45975677 -32.70166016 41.30932617 C-32.68720856 42.03592941 -32.67275696 42.76253265 -32.65786743 43.51115417 C-32.37342055 45.72783922 -32.37342055 45.72783922 -29.25 47.3125 C-23.59057403 46.81507118 -18.56735432 43.88973643 -14.25 40.3125 C-13.41060731 37.0517959 -13.41060731 37.0517959 -14.25 34.3125 C-15.735 33.8175 -15.735 33.8175 -17.25 33.3125 C-17.58 35.2925 -17.91 37.2725 -18.25 39.3125 C-19.57 39.3125 -20.89 39.3125 -22.25 39.3125 C-22.25 35.0225 -22.25 30.7325 -22.25 26.3125 C-17.79646353 27.44771518 -13.90842351 28.47598582 -10.25 31.3125 C-9.10288426 35.40019161 -9.24658325 39.19904569 -10.25 43.3125 C-12.60128964 45.79129993 -15.07975165 47.09535108 -18.25 48.3125 C-17.92 48.9725 -17.59 49.6325 -17.25 50.3125 C-16.26 50.3125 -15.27 50.3125 -14.25 50.3125 C-14.25 49.6525 -14.25 48.9925 -14.25 48.3125 C-13.280625 48.003125 -12.31125 47.69375 -11.3125 47.375 C-8.40934208 46.61726658 -8.40934208 46.61726658 -7.25 45.3125 C-7.09417697 43.97234779 -6.99955858 42.62491097 -6.93359375 41.27734375 C-6.89169922 40.46845703 -6.84980469 39.65957031 -6.80664062 38.82617188 C-6.76732422 37.97603516 -6.72800781 37.12589844 -6.6875 36.25 C-6.64431641 35.39599609 -6.60113281 34.54199219 -6.55664062 33.66210938 C-6.45023298 31.54577963 -6.34958269 29.42916187 -6.25 27.3125 C-4.93 27.3125 -3.61 27.3125 -2.25 27.3125 C-1.92 32.2625 -1.59 37.2125 -1.25 42.3125 C-0.92 40.9925 -0.59 39.6725 -0.25 38.3125 C0.74 37.9825 1.73 37.6525 2.75 37.3125 C2.75 36.6525 2.75 35.9925 2.75 35.3125 C3.41 34.9825 4.07 34.6525 4.75 34.3125 C4.09 34.3125 3.43 34.3125 2.75 34.3125 C3.224375 33.879375 3.69875 33.44625 4.1875 33 C7.38952169 29.54181657 6.83417775 25.77392071 6.75 21.3125 C5.76 21.3125 4.77 21.3125 3.75 21.3125 C3.9975 20.796875 4.245 20.28125 4.5 19.75 C4.8340721 16.49279706 3.42881926 14.82170109 1.7421875 12.12890625 C0.36512387 9.60790393 0.02646422 7.14625824 -0.25 4.3125 C-0.58 4.3125 -0.91 4.3125 -1.25 4.3125 C-1.24097656 5.49328125 -1.23195313 6.6740625 -1.22265625 7.890625 C-1.25080068 9.4479503 -1.28084842 11.00524203 -1.3125 12.5625 C-1.30154297 13.33980469 -1.29058594 14.11710937 -1.27929688 14.91796875 C-1.34877891 17.2406538 -1.49397942 19.1118452 -2.25 21.3125 C-5.58057175 24.41424566 -9.77940483 25.77060968 -14.25 26.3125 C-14.125 24.5625 -14.125 24.5625 -13.25 22.3125 C-11.75533203 21.48878906 -11.75533203 21.48878906 -10.23046875 20.6484375 C-6.88791453 18.55527343 -6.88791453 18.55527343 -6.55859375 14.7109375 C-6.57047961 13.36915615 -6.6143479 12.02733851 -6.6875 10.6875 C-6.69040039 9.6665625 -6.69040039 9.6665625 -6.69335938 8.625 C-6.71186984 6.41218843 -6.71186984 6.41218843 -7.25 3.3125 C-9.98726357 1.01841647 -9.98726357 1.01841647 -12.64086914 1.59887695 C-13.93238892 1.95212036 -13.93238892 1.95212036 -15.25 2.3125 C-16.04849365 2.49321045 -16.8469873 2.6739209 -17.66967773 2.86010742 C-20.63762964 3.97048086 -22.17528908 4.8814232 -24.25 7.3125 C-25.56638603 13.40973573 -25.41876604 19.41348298 -25.3125 25.625 C-25.3155758 27.33660076 -25.32269285 29.04819935 -25.33398438 30.75976562 C-25.35279758 34.94543118 -25.31620969 39.12735075 -25.25 43.3125 C-26.57 43.3125 -27.89 43.3125 -29.25 43.3125 C-29.39841624 37.97408219 -29.5072453 32.63686658 -29.57958984 27.296875 C-29.60974788 25.48090701 -29.65068198 23.66508451 -29.70263672 21.84960938 C-29.77550124 19.23791645 -29.80946367 16.62814942 -29.8359375 14.015625 C-29.86690521 13.20506653 -29.89787292 12.39450806 -29.92977905 11.55938721 C-29.93111526 9.31711305 -29.88013134 7.46571766 -29.25 5.3125 C-26.21337891 2.76855469 -26.21337891 2.76855469 -23.25 1.3125 C-23.91 0.3225 -24.57 -0.6675 -25.25 -1.6875 Z M-39.25 7.3125 C-39.518125 7.951875 -39.78625 8.59125 -40.0625 9.25 C-41.25 11.3125 -41.25 11.3125 -44.25 12.3125 C-43.92 12.9725 -43.59 13.6325 -43.25 14.3125 C-43.25 17.3125 -43.25 17.3125 -43.875 20.375 C-44.38865454 25.76837266 -43.70312709 31.40624582 -41.25 36.3125 C-40.59 36.3125 -39.93 36.3125 -39.25 36.3125 C-39.25 37.9625 -39.25 39.6125 -39.25 41.3125 C-38.92 41.3125 -38.59 41.3125 -38.25 41.3125 C-38.25 30.0925 -38.25 18.8725 -38.25 7.3125 C-38.58 7.3125 -38.91 7.3125 -39.25 7.3125 Z M-45.25 15.3125 C-44.59 15.9725 -43.93 16.6325 -43.25 17.3125 C-43.25 16.6525 -43.25 15.9925 -43.25 15.3125 C-43.91 15.3125 -44.57 15.3125 -45.25 15.3125 Z M-20.25 49.3125 C-19.59 49.9725 -18.93 50.6325 -18.25 51.3125 C-18.25 50.6525 -18.25 49.9925 -18.25 49.3125 C-18.91 49.3125 -19.57 49.3125 -20.25 49.3125 Z " fill="#916C37" transform="translate(52.25,11.6875)"/>
<path d="M0 0 C-0.185625 0.78375 -0.37125 1.5675 -0.5625 2.375 C-1.25962266 4.97089775 -1.25962266 4.97089775 0 7 C0.06096679 8.35949277 0.05838507 9.7221542 0.02172852 11.08251953 C-0.00841591 12.34360031 -0.00841591 12.34360031 -0.03916931 13.63015747 C-0.07972191 14.99272171 -0.07972191 14.99272171 -0.12109375 16.3828125 C-0.14470474 17.31221649 -0.16831573 18.24162048 -0.19264221 19.19918823 C-0.2693609 22.17461106 -0.35334991 25.14977896 -0.4375 28.125 C-0.49071247 30.13931034 -0.54345292 32.15363322 -0.59570312 34.16796875 C-0.72498716 39.11214132 -0.86079293 44.05609727 -1 49 C-0.34 49.33 0.32 49.66 1 50 C0.67 51.65 0.34 53.3 0 55 C-6.85466413 53.3281307 -11.0937469 49.47297699 -15.3125 44 C-19.47592904 36.59834838 -20.08642067 29.3406311 -19 21 C-16.18080523 12.23420791 -12.07463587 5.97442904 -4.13671875 1.0390625 C-2 0 -2 0 0 0 Z M-8 11 C-8.268125 11.639375 -8.53625 12.27875 -8.8125 12.9375 C-10 15 -10 15 -13 16 C-12.67 16.66 -12.34 17.32 -12 18 C-12 21 -12 21 -12.625 24.0625 C-13.13865454 29.45587266 -12.45312709 35.09374582 -10 40 C-9.34 40 -8.68 40 -8 40 C-8 41.65 -8 43.3 -8 45 C-7.67 45 -7.34 45 -7 45 C-7 33.78 -7 22.56 -7 11 C-7.33 11 -7.66 11 -8 11 Z M-14 19 C-13.34 19.66 -12.68 20.32 -12 21 C-12 20.34 -12 19.68 -12 19 C-12.66 19 -13.32 19 -14 19 Z " fill="#8D6A36" transform="translate(21,8)"/>
<path d="M0 0 C1.79244141 0.01740234 1.79244141 0.01740234 3.62109375 0.03515625 C5.41740234 0.04869141 5.41740234 0.04869141 7.25 0.0625 C8.17683594 0.07410156 9.10367188 0.08570313 10.05859375 0.09765625 C10.10795885 5.04555802 10.14429644 9.99331708 10.16845703 14.94140625 C10.17852692 16.62535091 10.19218363 18.30927804 10.20947266 19.99316406 C10.23367801 22.41085126 10.24506671 24.82830768 10.25390625 27.24609375 C10.26422882 28.00135345 10.27455139 28.75661316 10.28518677 29.53475952 C10.28558693 31.39059605 10.18082091 33.24584905 10.05859375 35.09765625 C8.05859375 37.09765625 8.05859375 37.09765625 5.23828125 37.29296875 C4.14773437 37.26976562 3.0571875 37.2465625 1.93359375 37.22265625 C0.83789062 37.20460937 -0.2578125 37.1865625 -1.38671875 37.16796875 C-2.22976562 37.14476562 -3.0728125 37.1215625 -3.94140625 37.09765625 C-3.94140625 35.11765625 -3.94140625 33.13765625 -3.94140625 31.09765625 C0.01859375 30.60265625 0.01859375 30.60265625 4.05859375 30.09765625 C4.05859375 28.11765625 4.05859375 26.13765625 4.05859375 24.09765625 C3.10984375 24.13890625 2.16109375 24.18015625 1.18359375 24.22265625 C-1.94140625 24.09765625 -1.94140625 24.09765625 -3.94140625 22.09765625 C-4.18432617 19.95874023 -4.18432617 19.95874023 -4.171875 17.34375 C-4.16994141 16.40724609 -4.16800781 15.47074219 -4.16601562 14.50585938 C-4.15376953 13.52552734 -4.14152344 12.54519531 -4.12890625 11.53515625 C-4.12826172 10.55095703 -4.12761719 9.56675781 -4.12695312 8.55273438 C-4.07474289 0.13528363 -4.07474289 0.13528363 0 0 Z M1.05859375 6.09765625 C1.05859375 10.05765625 1.05859375 14.01765625 1.05859375 18.09765625 C2.37859375 17.76765625 3.69859375 17.43765625 5.05859375 17.09765625 C5.05859375 13.46765625 5.05859375 9.83765625 5.05859375 6.09765625 C3.73859375 6.09765625 2.41859375 6.09765625 1.05859375 6.09765625 Z " fill="#F5EA9A" transform="translate(131.94140625,14.90234375)"/>
<path d="M0 0 C0.33 0.99 0.66 1.98 1 3 C1.99 3.33 2.98 3.66 4 4 C3.67 4.66 3.34 5.32 3 6 C2.34 6 1.68 6 1 6 C0.814375 6.5775 0.62875 7.155 0.4375 7.75 C-1.73128715 11.14462336 -4.40994626 12.20497313 -8 14 C-8.66 14 -9.32 14 -10 14 C-10 25.88 -10 37.76 -10 50 C-12.475 50.495 -12.475 50.495 -15 51 C-17.85795908 48.14204092 -16.36864611 38.00497379 -16.4050293 33.96386719 C-16.42659308 32.16158874 -16.46067719 30.35941457 -16.50756836 28.55761719 C-16.57458853 25.95981056 -16.60203153 23.36417434 -16.62109375 20.765625 C-16.64892441 19.96336487 -16.67675507 19.16110474 -16.70542908 18.33453369 C-16.68523253 12.82274647 -16.68523253 12.82274647 -14.62210083 10.34558105 C-12.96118164 8.95214844 -12.96118164 8.95214844 -10 7 C-12.32357511 6.81509993 -12.32357511 6.81509993 -15 9 C-17.1875 8.625 -17.1875 8.625 -19 8 C-18 5.125 -18 5.125 -16 2 C-10.56806771 -0.02546628 -5.75270071 -0.2054536 0 0 Z " fill="#BBA563" transform="translate(38,5)"/>
<path d="M0 0 C5.3700243 0.42960194 9.20629234 1.02123343 13 5 C13.99176877 9.19274703 14.08324245 12.82096464 13 17 C10.64399633 19.4732939 8.16999519 20.78294828 5 22 C5.99 22.66 6.98 23.32 8 24 C8 23.34 8 22.68 8 22 C10.31 21.01 12.62 20.02 15 19 C15.33 21.31 15.66 23.62 16 26 C7.57531995 29.20940193 1.47319849 29.72107545 -7.1796875 26.94921875 C-9 26 -9 26 -10 23 C-10 22.01 -10 21.02 -10 20 C-9.12988281 20.05414063 -8.25976562 20.10828125 -7.36328125 20.1640625 C-3.6115837 19.98105286 -1.48393997 19.13370258 1.8125 17.375 C3.24529297 16.64410156 3.24529297 16.64410156 4.70703125 15.8984375 C7.30221677 14.1282168 7.30221677 14.1282168 7.82421875 10.7890625 C7.88222656 9.86867188 7.94023438 8.94828125 8 8 C7.34 8 6.68 8 6 8 C5.34 9.98 4.68 11.96 4 14 C2.68 13.67 1.36 13.34 0 13 C0 8.71 0 4.42 0 0 Z M2 23 C2.66 23.66 3.32 24.32 4 25 C4 24.34 4 23.68 4 23 C3.34 23 2.68 23 2 23 Z " fill="#D2C07B" transform="translate(30,38)"/>
<path d="M0 0 C1.65 0.33 3.3 0.66 5 1 C5 5.29 5 9.58 5 14 C6.11375 13.95875 7.2275 13.9175 8.375 13.875 C12 14 12 14 14 16 C14.25878906 18.03125 14.25878906 18.03125 14.265625 20.5 C14.26820312 21.386875 14.27078125 22.27375 14.2734375 23.1875 C14.26570313 24.115625 14.25796875 25.04375 14.25 26 C14.25773437 26.928125 14.26546875 27.85625 14.2734375 28.8125 C14.27085938 29.699375 14.26828125 30.58625 14.265625 31.5 C14.26336914 32.3146875 14.26111328 33.129375 14.25878906 33.96875 C14 36 14 36 12 38 C9.1796875 38.1953125 9.1796875 38.1953125 5.875 38.125 C4.77929688 38.10695312 3.68359375 38.08890625 2.5546875 38.0703125 C1.71164063 38.04710937 0.86859375 38.02390625 0 38 C-0.16723026 32.74912156 -0.32782815 27.49809906 -0.48217773 22.24682617 C-0.53567402 20.45900968 -0.59100904 18.67124725 -0.64819336 16.88354492 C-0.72989235 14.31961734 -0.80505945 11.75557047 -0.87890625 9.19140625 C-0.90594131 8.3872377 -0.93297638 7.58306915 -0.96083069 6.75453186 C-1.01285627 4.83701578 -1.01187441 2.91818497 -1 1 C-0.67 0.67 -0.34 0.34 0 0 Z M5 20 C5 23.96 5 27.92 5 32 C6.32 32 7.64 32 9 32 C9 28.04 9 24.08 9 20 C7.68 20 6.36 20 5 20 Z " fill="#926731" transform="translate(73,1)"/>
<path d="M0 0 C9.92564941 2.61926859 16.59908735 7.22351695 22 16 C22 16.66 22 17.32 22 18 C21.34 18 20.68 18 20 18 C20.04125 18.94875 20.0825 19.8975 20.125 20.875 C20 24 20 24 18 26 C17.70996094 25.04287109 17.70996094 25.04287109 17.4140625 24.06640625 C17.02347656 22.82697266 17.02347656 22.82697266 16.625 21.5625 C16.36976562 20.73878906 16.11453125 19.91507813 15.8515625 19.06640625 C15.19117773 16.82201984 15.19117773 16.82201984 13 16 C13.020625 16.73605469 13.04125 17.47210937 13.0625 18.23046875 C12.89807991 26.00959411 12.89807991 26.00959411 10.328125 28.84375 C6.65777532 31.21705881 3.46100524 32.69703207 -1 32 C-0.8125 29.6875 -0.8125 29.6875 0 27 C0.8353125 26.608125 1.670625 26.21625 2.53125 25.8125 C3.75328125 24.9153125 3.75328125 24.9153125 5 24 C5.38060051 21.21400429 5.47962905 19.06627249 5.3125 16.3125 C5.28994141 15.61060547 5.26738281 14.90871094 5.24414062 14.18554688 C5.18531647 12.4561167 5.09563389 10.72778562 5 9 C2.525 8.01 2.525 8.01 0 7 C0 6.34 0 5.68 0 5 C0.66 5 1.32 5 2 5 C2 4.34 2 3.68 2 3 C1.34 2.67 0.68 2.34 0 2 C0 1.34 0 0.68 0 0 Z " fill="#856A3D" transform="translate(39,6)"/>
<path d="M0 0 C1.98 0 3.96 0 6 0 C6 5.94 6 11.88 6 18 C6.99 18 7.98 18 9 18 C9 12.06 9 6.12 9 0 C10.98 0 12.96 0 15 0 C15.08703823 3.43734063 15.14040272 6.87439837 15.1875 10.3125 C15.22520508 11.77719727 15.22520508 11.77719727 15.26367188 13.27148438 C15.27817383 14.67817383 15.27817383 14.67817383 15.29296875 16.11328125 C15.31653442 17.40939331 15.31653442 17.40939331 15.34057617 18.73168945 C14.92730841 21.48414163 14.20071021 22.34797365 12 24 C9.80859375 24.328125 9.80859375 24.328125 7.4375 24.25 C6.25994141 24.22679687 6.25994141 24.22679687 5.05859375 24.203125 C3 24 3 24 1 23 C0.03911617 20.11734851 -0.11670941 18.32337729 -0.09765625 15.33203125 C-0.09443359 14.43935547 -0.09121094 13.54667969 -0.08789062 12.62695312 C-0.07951172 11.69818359 -0.07113281 10.76941406 -0.0625 9.8125 C-0.05798828 8.87212891 -0.05347656 7.93175781 -0.04882812 6.96289062 C-0.03704626 4.64186288 -0.02059558 2.32096356 0 0 Z " fill="#B49D61" transform="translate(90,15)"/>
<path d="M0 0 C1.3303125 0.00773438 1.3303125 0.00773438 2.6875 0.015625 C3.574375 0.01046875 4.46125 0.0053125 5.375 0 C7.6875 0.265625 7.6875 0.265625 9.6875 2.265625 C9.8828125 5.0859375 9.8828125 5.0859375 9.8125 8.390625 C9.79445312 9.48632812 9.77640625 10.58203125 9.7578125 11.7109375 C9.73460937 12.55398437 9.71140625 13.39703125 9.6875 14.265625 C6.31652617 15.76383559 4.48307881 16.265625 0.6875 16.265625 C0.6875 16.925625 0.6875 17.585625 0.6875 18.265625 C3.6575 18.265625 6.6275 18.265625 9.6875 18.265625 C8.8125 23.140625 8.8125 23.140625 7.6875 24.265625 C6.04519636 24.3901736 4.39697724 24.44131024 2.75 24.453125 C1.85410156 24.46730469 0.95820313 24.48148438 0.03515625 24.49609375 C-2.3125 24.265625 -2.3125 24.265625 -4.3125 22.265625 C-4.57128906 20.234375 -4.57128906 20.234375 -4.578125 17.765625 C-4.58070313 16.87875 -4.58328125 15.991875 -4.5859375 15.078125 C-4.57433594 13.6859375 -4.57433594 13.6859375 -4.5625 12.265625 C-4.57023438 11.3375 -4.57796875 10.409375 -4.5859375 9.453125 C-4.58335937 8.56625 -4.58078125 7.679375 -4.578125 6.765625 C-4.57586914 5.9509375 -4.57361328 5.13625 -4.57128906 4.296875 C-4.17566683 1.19161374 -3.05148463 0.35050837 0 0 Z M0.6875 6.265625 C0.6875 7.255625 0.6875 8.245625 0.6875 9.265625 C2.0075 9.265625 3.3275 9.265625 4.6875 9.265625 C4.6875 8.275625 4.6875 7.285625 4.6875 6.265625 C3.3675 6.265625 2.0475 6.265625 0.6875 6.265625 Z " fill="#DBCB82" transform="translate(149.3125,14.734375)"/>
<path d="M0 0 C1.67542976 0.28604898 3.34385343 0.61781233 5 1 C5 3.64 5 6.28 5 9 C6.32 9 7.64 9 9 9 C9 10.98 9 12.96 9 15 C7.68 15.33 6.36 15.66 5 16 C5 19.63 5 23.26 5 27 C6.98 27 8.96 27 11 27 C11.38218767 28.65614657 11.71395102 30.32457024 12 32 C10.42039731 33.57960269 8.80463184 33.16986544 6.625 33.1875 C5.43777344 33.20876953 5.43777344 33.20876953 4.2265625 33.23046875 C2 33 2 33 -1 31 C-1.35644531 28.03491211 -1.35644531 28.03491211 -1.328125 24.27734375 C-1.32625183 23.61666397 -1.32437866 22.95598419 -1.32244873 22.27528381 C-1.3157261 20.87902783 -1.30180717 19.48279075 -1.28125 18.08666992 C-1.2500708 15.94236886 -1.24027799 13.79880221 -1.234375 11.65429688 C-1.16337676 1.16337676 -1.16337676 1.16337676 0 0 Z " fill="#C7A863" transform="translate(163,6)"/>
<path d="M0 0 C1.98 0 3.96 0 6 0 C6.0246501 5.10863896 6.04283607 10.21724359 6.05493164 15.32592773 C6.05997204 17.06519168 6.0668043 18.80445136 6.07543945 20.54370117 C6.08751792 23.03825937 6.09323108 25.53276173 6.09765625 28.02734375 C6.10281754 28.80963852 6.10797882 29.59193329 6.11329651 30.39793396 C6.11349226 32.26567114 6.06199694 34.13329204 6 36 C5.505 36.495 5.505 36.495 5 37 C3.35 37 1.7 37 0 37 C0 24.79 0 12.58 0 0 Z " fill="#C5AF6A" transform="translate(108,2)"/>
<path d="M0 0 C1.79244141 0.01740234 1.79244141 0.01740234 3.62109375 0.03515625 C5.41740234 0.04869141 5.41740234 0.04869141 7.25 0.0625 C8.17683594 0.07410156 9.10367188 0.08570313 10.05859375 0.09765625 C10.10795885 5.04555802 10.14429644 9.99331708 10.16845703 14.94140625 C10.17852692 16.62535091 10.19218363 18.30927804 10.20947266 19.99316406 C10.23367801 22.41085126 10.24506671 24.82830768 10.25390625 27.24609375 C10.26422882 28.00135345 10.27455139 28.75661316 10.28518677 29.53475952 C10.28558693 31.39059605 10.18082091 33.24584905 10.05859375 35.09765625 C8.05859375 37.09765625 8.05859375 37.09765625 5.23828125 37.29296875 C4.14773437 37.26976562 3.0571875 37.2465625 1.93359375 37.22265625 C0.83789062 37.20460937 -0.2578125 37.1865625 -1.38671875 37.16796875 C-2.22976562 37.14476562 -3.0728125 37.1215625 -3.94140625 37.09765625 C-3.94140625 35.11765625 -3.94140625 33.13765625 -3.94140625 31.09765625 C0.01859375 30.60265625 0.01859375 30.60265625 4.05859375 30.09765625 C4.05859375 28.11765625 4.05859375 26.13765625 4.05859375 24.09765625 C3.10984375 24.13890625 2.16109375 24.18015625 1.18359375 24.22265625 C-1.94140625 24.09765625 -1.94140625 24.09765625 -3.94140625 22.09765625 C-4.18432617 19.95874023 -4.18432617 19.95874023 -4.171875 17.34375 C-4.16994141 16.40724609 -4.16800781 15.47074219 -4.16601562 14.50585938 C-4.15376953 13.52552734 -4.14152344 12.54519531 -4.12890625 11.53515625 C-4.12826172 10.55095703 -4.12761719 9.56675781 -4.12695312 8.55273438 C-4.07474289 0.13528363 -4.07474289 0.13528363 0 0 Z M-1.94140625 1.09765625 C-3.15783917 2.09248827 -3.15783917 2.09248827 -3.05493164 4.04711914 C-3.04969482 4.87977295 -3.04445801 5.71242676 -3.0390625 6.5703125 C-3.03583984 7.46943359 -3.03261719 8.36855469 -3.02929688 9.29492188 C-3.02091797 10.24044922 -3.01253906 11.18597656 -3.00390625 12.16015625 C-2.99939453 13.10955078 -2.99488281 14.05894531 -2.99023438 15.03710938 C-2.97840735 17.3906869 -2.9619265 19.74414102 -2.94140625 22.09765625 C-0.30140625 22.42765625 2.33859375 22.75765625 5.05859375 23.09765625 C5.71859375 22.10765625 6.37859375 21.11765625 7.05859375 20.09765625 C7.38859375 23.06765625 7.71859375 26.03765625 8.05859375 29.09765625 C8.38859375 29.09765625 8.71859375 29.09765625 9.05859375 29.09765625 C9.05859375 19.85765625 9.05859375 10.61765625 9.05859375 1.09765625 C5.42859375 1.09765625 1.79859375 1.09765625 -1.94140625 1.09765625 Z " fill="#DAD89B" transform="translate(131.94140625,14.90234375)"/>
<path d="M0 0 C-0.185625 0.78375 -0.37125 1.5675 -0.5625 2.375 C-1.25962266 4.97089775 -1.25962266 4.97089775 0 7 C0.06096679 8.35949277 0.05838507 9.7221542 0.02172852 11.08251953 C0.00163223 11.92324005 -0.01846405 12.76396057 -0.03916931 13.63015747 C-0.06620438 14.53853363 -0.09323944 15.44690979 -0.12109375 16.3828125 C-0.14470474 17.31221649 -0.16831573 18.24162048 -0.19264221 19.19918823 C-0.2693609 22.17461106 -0.35334991 25.14977896 -0.4375 28.125 C-0.49071247 30.13931034 -0.54345292 32.15363322 -0.59570312 34.16796875 C-0.72498716 39.11214132 -0.86079293 44.05609727 -1 49 C-0.34 49.33 0.32 49.66 1 50 C0.505 52.475 0.505 52.475 0 55 C-1.98 54.34 -3.96 53.68 -6 53 C-5.67 52.34 -5.34 51.68 -5 51 C-4.91528326 49.50407776 -4.89279214 48.00439222 -4.90234375 46.50610352 C-4.90564697 45.57496231 -4.9089502 44.64382111 -4.91235352 43.6844635 C-4.92065186 42.67612961 -4.9289502 41.66779572 -4.9375 40.62890625 C-4.94128662 39.59563705 -4.94507324 38.56236786 -4.94897461 37.49778748 C-4.96537449 33.06415049 -4.99349142 28.63060444 -5.02050781 24.19702148 C-5.0385437 20.96598737 -5.05067008 17.73496807 -5.0625 14.50390625 C-5.07079834 13.49759659 -5.07909668 12.49128693 -5.08764648 11.45448303 C-5.09094971 10.52018967 -5.09425293 9.5858963 -5.09765625 8.62329102 C-5.10551147 7.38990746 -5.10551147 7.38990746 -5.11352539 6.13160706 C-5 4 -5 4 -4 1 C-2 0 -2 0 0 0 Z " fill="#A1783E" transform="translate(21,8)"/>
<path d="M0 0 C0.99 0 1.98 0 3 0 C5.99388238 6.46678593 6.23232607 13.9193731 4.171875 20.7421875 C2.70760532 24.07504014 1.02111023 26.96833466 -1 30 C-1.99 30 -2.98 30 -4 30 C-4.33 29.34 -4.66 28.68 -5 28 C-5.66 28.66 -6.32 29.32 -7 30 C-7 28.68 -7 27.36 -7 26 C-6 25 -5 24 -4 23 C-3.63557767 21.33985384 -3.30027117 19.67293936 -3 18 C-2.34 17.34 -1.68 16.68 -1 16 C-0.59952556 13.67724823 -0.2602896 11.34260643 0 9 C-0.99 9 -1.98 9 -3 9 C-2.67 8.01 -2.34 7.02 -2 6 C-1.67 6 -1.34 6 -1 6 C-0.67 4.02 -0.34 2.04 0 0 Z " fill="#7C6033" transform="translate(59,24)"/>
<path d="M0 0 C3.63 0 7.26 0 11 0 C13 2 13 2 13 6 C10.69 6 8.38 6 6 6 C6 11.94 6 17.88 6 24 C4.35 24 2.7 24 1 24 C0.67 16.08 0.34 8.16 0 0 Z " fill="#9C743B" transform="translate(185,15)"/>
<path d="M0 0 C0 4.29 0 8.58 0 13 C-8.43461538 18.08557692 -8.43461538 18.08557692 -11.296875 17.65234375 C-11.85890625 17.43707031 -12.4209375 17.22179687 -13 17 C-12.8125 15.1875 -12.8125 15.1875 -12 13 C-7.82142857 10 -7.82142857 10 -5 10 C-5 9.01 -5 8.02 -5 7 C-5.99 7.66 -6.98 8.32 -8 9 C-10.6875 8.625 -10.6875 8.625 -13 8 C-12.7734375 6.17578125 -12.7734375 6.17578125 -12 4 C-10.0390625 2.48046875 -10.0390625 2.48046875 -7.625 1.1875 C-6.83351563 0.74792969 -6.04203125 0.30835937 -5.2265625 -0.14453125 C-3 -1 -3 -1 0 0 Z " fill="#D7C67F" transform="translate(43,16)"/>
<path d="M0 0 C1.32 0.66 2.64 1.32 4 2 C3.01 2 2.02 2 1 2 C1.99 2.66 2.98 3.32 4 4 C3.649375 4.763125 3.29875 5.52625 2.9375 6.3125 C1.27064356 12.86880199 2.61596383 19.45835895 4 26 C3.34 26 2.68 26 2 26 C1.67 25.34 1.34 24.68 1 24 C-0.32 24.33 -1.64 24.66 -3 25 C-5.27775126 21.37548311 -5.26802235 18.28423665 -5.25 14.0625 C-5.25515625 12.85722656 -5.2603125 11.65195312 -5.265625 10.41015625 C-5.0081556 7.10470352 -4.56048728 4.90770797 -3 2 C-2.01 1.34 -1.02 0.68 0 0 Z M0 5 C0.66 5.66 1.32 6.32 2 7 C2 6.34 2 5.68 2 5 C1.34 5 0.68 5 0 5 Z " fill="#79673F" transform="translate(7,22)"/>
<path d="M0 0 C1.98 0 3.96 0 6 0 C6 7.92 6 15.84 6 24 C4.35 24 2.7 24 1 24 C0 23 0 23 -0.11352539 20.77514648 C-0.10828857 19.81680908 -0.10305176 18.85847168 -0.09765625 17.87109375 C-0.09443359 16.83662109 -0.09121094 15.80214844 -0.08789062 14.73632812 C-0.07951172 13.64771484 -0.07113281 12.55910156 -0.0625 11.4375 C-0.05798828 10.34501953 -0.05347656 9.25253906 -0.04882812 8.12695312 C-0.03699826 5.41791505 -0.02051543 2.70898401 0 0 Z " fill="#A18349" transform="translate(176,15)"/>
<path d="M0 0 C1.98 0 3.96 0 6 0 C5.98428955 0.62044189 5.9685791 1.24088379 5.95239258 1.88012695 C5.89003786 4.69082528 5.85100852 7.50137812 5.8125 10.3125 C5.78736328 11.28896484 5.76222656 12.26542969 5.73632812 13.27148438 C5.72666016 14.20927734 5.71699219 15.14707031 5.70703125 16.11328125 C5.6913208 16.97735596 5.67561035 17.84143066 5.65942383 18.73168945 C6.06759322 21.45018536 6.89592904 22.30363829 9 24 C3.25 24.125 3.25 24.125 1 23 C0.03911617 20.11734851 -0.11670941 18.32337729 -0.09765625 15.33203125 C-0.09443359 14.43935547 -0.09121094 13.54667969 -0.08789062 12.62695312 C-0.07951172 11.69818359 -0.07113281 10.76941406 -0.0625 9.8125 C-0.05798828 8.87212891 -0.05347656 7.93175781 -0.04882812 6.96289062 C-0.03704626 4.64186288 -0.02059558 2.32096356 0 0 Z " fill="#AC8E53" transform="translate(90,15)"/>
<path d="M0 0 C0.144375 0.598125 0.28875 1.19625 0.4375 1.8125 C0.8872439 3.56150404 1.42892341 5.28677023 2 7 C-6.42468005 10.20940193 -12.52680151 10.72107545 -21.1796875 7.94921875 C-23 7 -23 7 -24 4 C-24 3.01 -24 2.02 -24 1 C-22.53984709 1.28241641 -21.08190207 1.57626614 -19.625 1.875 C-18.40683594 2.11863281 -18.40683594 2.11863281 -17.1640625 2.3671875 C-15 3 -15 3 -13 5 C-11.65938457 4.69728039 -10.32594105 4.36162029 -9 4 C-8.01 4.33 -7.02 4.66 -6 5 C-6 4.34 -6 3.68 -6 3 C-4.02 2.01 -2.04 1.02 0 0 Z " fill="#C2B67B" transform="translate(44,57)"/>
<path d="M0 0 C0.66 0.33 1.32 0.66 2 1 C2 4.96 2 8.92 2 13 C-3 15 -3 15 -7 15 C-7 15.66 -7 16.32 -7 17 C-4.03 17 -1.06 17 2 17 C1.125 21.875 1.125 21.875 0 23 C-2.67058851 23.14115161 -5.32432238 23.04247107 -8 23 C-8 22.67 -8 22.34 -8 22 C-7.43410156 21.87882812 -6.86820313 21.75765625 -6.28515625 21.6328125 C-5.55167969 21.46523438 -4.81820312 21.29765625 -4.0625 21.125 C-3.33160156 20.96257813 -2.60070312 20.80015625 -1.84765625 20.6328125 C0.20700294 20.17038477 0.20700294 20.17038477 1 18 C-1.97 18 -4.94 18 -8 18 C-9.28571429 8.42857143 -9.28571429 8.42857143 -8 4 C-6.02 4 -4.04 4 -2 4 C-1.67 4.66 -1.34 5.32 -1 6 C-0.67 4.02 -0.34 2.04 0 0 Z M-7 5 C-7 5.99 -7 6.98 -7 8 C-5.68 8 -4.36 8 -3 8 C-3 7.01 -3 6.02 -3 5 C-4.32 5 -5.64 5 -7 5 Z " fill="#D0C27E" transform="translate(157,16)"/>
<path d="M0 0 C6.15234375 -0.09765625 6.15234375 -0.09765625 8 0 C9 1 9 1 9.11352539 2.94946289 C9.10828857 3.7821167 9.10305176 4.61477051 9.09765625 5.47265625 C9.09443359 6.37177734 9.09121094 7.27089844 9.08789062 8.19726562 C9.07951172 9.14279297 9.07113281 10.08832031 9.0625 11.0625 C9.05798828 12.01189453 9.05347656 12.96128906 9.04882812 13.93945312 C9.0370011 16.29303065 9.02052025 18.64648477 9 21 C7.1875 22.0625 7.1875 22.0625 5 23 C4.01 22.67 3.02 22.34 2 22 C2 21.34 2 20.68 2 20 C1.34 19.34 0.68 18.68 0 18 C1.65 18 3.3 18 5 18 C5 13.38 5 8.76 5 4 C3.02 4 1.04 4 -1 4 C-0.67 2.68 -0.34 1.36 0 0 Z " fill="#A1793E" transform="translate(78,16)"/>
<path d="M0 0 C1.67542976 0.28604898 3.34385343 0.61781233 5 1 C5 3.64 5 6.28 5 9 C6.32 9 7.64 9 9 9 C9 10.98 9 12.96 9 15 C7.68 15.33 6.36 15.66 5 16 C5 19.63 5 23.26 5 27 C6.98 27 8.96 27 11 27 C11.38218767 28.65614657 11.71395102 30.32457024 12 32 C11 33 11 33 7.4375 33.0625 C6.303125 33.041875 5.16875 33.02125 4 33 C3.67 32.34 3.34 31.68 3 31 C5.31 31 7.62 31 10 31 C10 30.01 10 29.02 10 28 C7.69 28 5.38 28 3 28 C3 23.38 3 18.76 3 14 C4.65 14 6.3 14 8 14 C8 12.68 8 11.36 8 10 C6.35 10 4.7 10 3 10 C3 7.36 3 4.72 3 2 C2.01 2 1.02 2 0 2 C0 10.25 0 18.5 0 27 C-0.33 27 -0.66 27 -1 27 C-1.02886537 22.68751391 -1.04675255 18.37505238 -1.0625 14.0625 C-1.07087891 12.83080078 -1.07925781 11.59910156 -1.08789062 10.33007812 C-1.09111328 9.16025391 -1.09433594 7.99042969 -1.09765625 6.78515625 C-1.10289307 5.70113525 -1.10812988 4.61711426 -1.11352539 3.50024414 C-1 1 -1 1 0 0 Z " fill="#B39A5A" transform="translate(163,6)"/>
<path d="M0 0 C2.64 0 5.28 0 8 0 C8 3.96 8 7.92 8 12 C5.36 12 2.72 12 0 12 C0 8.04 0 4.08 0 0 Z " fill="#B59D67" transform="translate(99,55)"/>
<path d="M0 0 C2.64 0 5.28 0 8 0 C8 3.63 8 7.26 8 11 C3 12 3 12 0 12 C0 8.04 0 4.08 0 0 Z " fill="#A89058" transform="translate(175,55)"/>
<path d="M0 0 C0.33 4.62 0.66 9.24 1 14 C-2.96 14 -6.92 14 -11 14 C-11 12.02 -11 10.04 -11 8 C-8.36 7.67 -5.72 7.34 -3 7 C-3 5.02 -3 3.04 -3 1 C-1 0 -1 0 0 0 Z " fill="#EDE59B" transform="translate(139,38)"/>
<path d="M0 0 C3.4375 0.8125 3.4375 0.8125 7 2 C7.33 2.99 7.66 3.98 8 5 C8.66 5.66 9.32 6.32 10 7 C9.98252112 9.59269983 9.86231408 12.0525154 9.625 14.625 C9.56828125 15.33140625 9.5115625 16.0378125 9.453125 16.765625 C9.31159079 18.51121361 9.15702613 20.25573673 9 22 C8.01 22.33 7.02 22.66 6 23 C5.67 18.38 5.34 13.76 5 9 C2.525 8.01 2.525 8.01 0 7 C0 6.34 0 5.68 0 5 C0.66 5 1.32 5 2 5 C2 4.34 2 3.68 2 3 C1.34 2.67 0.68 2.34 0 2 C0 1.34 0 0.68 0 0 Z " fill="#A77C3D" transform="translate(39,6)"/>
<path d="M0 0 C0 0.99 0 1.98 0 3 C-3.47918645 5.51274577 -6.69219713 7 -11 7 C-11.99 7.66 -12.98 8.32 -14 9 C-16.1875 8.625 -16.1875 8.625 -18 8 C-17 5.125 -17 5.125 -15 2 C-9.87715705 0.12162425 -5.41210504 -0.22550438 0 0 Z " fill="#AA9B65" transform="translate(37,5)"/>
<path d="M0 0 C2.33944736 0.28730055 4.6739143 0.61936779 7 1 C7.02688151 2.64574566 7.04634123 4.29161413 7.0625 5.9375 C7.07410156 6.85402344 7.08570312 7.77054688 7.09765625 8.71484375 C7 11 7 11 6 12 C3.66702567 12.04092937 1.33294775 12.04241723 -1 12 C-1.02687279 10.18757948 -1.04633715 8.37504767 -1.0625 6.5625 C-1.07410156 5.55316406 -1.08570312 4.54382812 -1.09765625 3.50390625 C-1 1 -1 1 0 0 Z M3 4 C3 5.65 3 7.3 3 9 C3.33 9 3.66 9 4 9 C4 7.35 4 5.7 4 4 C3.67 4 3.34 4 3 4 Z " fill="#B9B273" transform="translate(114,55)"/>
<path d="M0 0 C0.66 0.33 1.32 0.66 2 1 C2 1.66 2 2.32 2 3 C2.99 3.33 3.98 3.66 5 4 C4.67 4.66 4.34 5.32 4 6 C3.34 6 2.68 6 2 6 C1.79375 6.598125 1.5875 7.19625 1.375 7.8125 C-0.53737004 10.85490688 -2.72121267 11.66171946 -6 13 C-6.99 13 -7.98 13 -9 13 C-9.33 11.35 -9.66 9.7 -10 8 C-8.02 7.01 -6.04 6.02 -4 5 C-4 4.34 -4 3.68 -4 3 C-2.68 3 -1.36 3 0 3 C0 2.01 0 1.02 0 0 Z " fill="#E8DD94" transform="translate(37,5)"/>
<path d="M0 0 C4.55555556 0.55555556 4.55555556 0.55555556 6 2 C6.27314815 7.73611111 6.27314815 7.73611111 6 10 C5.34 10.66 4.68 11.32 4 12 C0.875 11.625 0.875 11.625 -2 11 C-2.05399736 9.54207116 -2.09279177 8.08357288 -2.125 6.625 C-2.15980469 5.40683594 -2.15980469 5.40683594 -2.1953125 4.1640625 C-2 2 -2 2 0 0 Z M2 7 C1.67 7.66 1.34 8.32 1 9 C1.66 9 2.32 9 3 9 C2.67 8.34 2.34 7.68 2 7 Z " fill="#9D6733" transform="translate(191,55)"/>
<path d="M0 0 C1.98 0 3.96 0 6 0 C7 1 7 1 7.1328125 3.25 C7.13023437 4.1575 7.12765625 5.065 7.125 6 C7.12757813 6.9075 7.13015625 7.815 7.1328125 8.75 C7 11 7 11 6 12 C4.02 12 2.04 12 0 12 C0 8.04 0 4.08 0 0 Z " fill="#F0E79B" transform="translate(137,55)"/>
<path d="M0 0 C2.31 0.33 4.62 0.66 7 1 C7 4.63 7 8.26 7 12 C4.69 12 2.38 12 0 12 C0 8.04 0 4.08 0 0 Z M3 8 C4 10 4 10 4 10 Z " fill="#DFCC84" transform="translate(151,55)"/>
<path d="M0 0 C1.65 0 3.3 0 5 0 C5.66 1.65 6.32 3.3 7 5 C6.01 5.495 6.01 5.495 5 6 C5 8.31 5 10.62 5 13 C4.01 13.33 3.02 13.66 2 14 C1.34 13.67 0.68 13.34 0 13 C0 8.71 0 4.42 0 0 Z " fill="#F4EB97" transform="translate(30,38)"/>
<path d="M0 0 C0.99 0 1.98 0 3 0 C4.95031692 4.07723734 5.21581971 7.31692422 5.125 11.8125 C5.10695313 12.97394531 5.08890625 14.13539062 5.0703125 15.33203125 C5.04710938 16.21246094 5.02390625 17.09289062 5 18 C1.13892543 15.42595029 1.05680308 13.38979741 0 9 C-0.99 9 -1.98 9 -3 9 C-2.67 8.01 -2.34 7.02 -2 6 C-1.67 6 -1.34 6 -1 6 C-0.67 4.02 -0.34 2.04 0 0 Z " fill="#6F5A2F" transform="translate(59,24)"/>
<path d="M0 0 C0.99 0 1.98 0 3 0 C3.16276042 2.01822917 3.32552083 4.03645833 3.48828125 6.0546875 C3.87393036 8.39519216 3.87393036 8.39519216 7 10 C7.6875 12.625 7.6875 12.625 8 15 C7.34 15 6.68 15 6 15 C5.67 14.34 5.34 13.68 5 13 C3.68 13.33 2.36 13.66 1 14 C-0.75328507 10.97159851 -1.25093193 8.80125633 -1.1875 5.3125 C-1.18105469 4.52488281 -1.17460937 3.73726562 -1.16796875 2.92578125 C-1 1 -1 1 0 0 Z " fill="#725D36" transform="translate(3,33)"/>
<path d="M0 0 C6.75 -0.125 6.75 -0.125 9 1 C8.88652381 2.97986082 8.7589065 4.95891598 8.625 6.9375 C8.55539063 8.03964844 8.48578125 9.14179688 8.4140625 10.27734375 C8.27742187 11.17582031 8.14078125 12.07429688 8 13 C7.01 13.495 7.01 13.495 6 14 C6 11.03 6 8.06 6 5 C5.01 4.67 4.02 4.34 3 4 C3 7.96 3 11.92 3 16 C4.32 16.33 5.64 16.66 7 17 C5.35 17 3.7 17 2 17 C1.93941406 16.10796875 1.87882813 15.2159375 1.81640625 14.296875 C1.73261719 13.12640625 1.64882812 11.9559375 1.5625 10.75 C1.48128906 9.58984375 1.40007812 8.4296875 1.31640625 7.234375 C1.06752213 4.69022624 0.71885058 2.44046752 0 0 Z " fill="#E9E49F" transform="translate(130,17)"/>
<path d="M0 0 C2.99324263 1.0975223 3.84610901 1.67682892 5.25 4.625 C5.4975 5.40875 5.745 6.1925 6 7 C5.34 7 4.68 7 4 7 C4.061875 8.423125 4.061875 8.423125 4.125 9.875 C4 13 4 13 2 15 C1.80664062 14.36191406 1.61328125 13.72382813 1.4140625 13.06640625 C1.15367188 12.24011719 0.89328125 11.41382813 0.625 10.5625 C0.36976562 9.73878906 0.11453125 8.91507813 -0.1484375 8.06640625 C-0.80882227 5.82201984 -0.80882227 5.82201984 -3 5 C-2.01 3.35 -1.02 1.7 0 0 Z " fill="#877235" transform="translate(55,17)"/>
<path d="M0 0 C0.66 0.33 1.32 0.66 2 1 C2 4.96 2 8.92 2 13 C-3 15 -3 15 -7 15 C-7 14.34 -7 13.68 -7 13 C-5.35 12.67 -3.7 12.34 -2 12 C-2.33 9.69 -2.66 7.38 -3 5 C-4.65 5.66 -6.3 6.32 -8 7 C-8 6.01 -8 5.02 -8 4 C-6.02 4 -4.04 4 -2 4 C-1.67 4.66 -1.34 5.32 -1 6 C-0.67 4.02 -0.34 2.04 0 0 Z " fill="#BEB279" transform="translate(157,16)"/>
<path d="M0 0 C1.98 0 3.96 0 6 0 C6 3.11257569 5.82638376 5.10765685 5 8 C4.34 8 3.68 8 3 8 C3 9.32 3 10.64 3 12 C2.01 12 1.02 12 0 12 C0 8.04 0 4.08 0 0 Z " fill="#896633" transform="translate(76,55)"/>
<path d="M0 0 C0.144375 0.598125 0.28875 1.19625 0.4375 1.8125 C0.8872439 3.56150404 1.42892341 5.28677023 2 7 C-1.47745199 8.58969234 -4.16442626 9.41465662 -8 9 C-8.66 8.34 -9.32 7.68 -10 7 C-9.67 6.01 -9.34 5.02 -9 4 C-8.01 4.33 -7.02 4.66 -6 5 C-6 4.34 -6 3.68 -6 3 C-4.02 2.01 -2.04 1.02 0 0 Z " fill="#C1A864" transform="translate(44,57)"/>
<path d="M0 0 C0.33 1.32 0.66 2.64 1 4 C-2.79692186 6.82561627 -5.18569279 8.56638908 -10 8 C-9.8125 5.6875 -9.8125 5.6875 -9 3 C-5.68035674 0.39811744 -4.30683959 0 0 0 Z " fill="#A98649" transform="translate(48,30)"/>
<path d="M0 0 C0.515625 0.2475 1.03125 0.495 1.5625 0.75 C1.5625 2.07 1.5625 3.39 1.5625 4.75 C-0.89494246 6.72960642 -2.42257751 7.80799557 -5.625 7.625 C-7.4375 6.75 -7.4375 6.75 -9.4375 3.75 C-3.0375 -0.31153846 -3.0375 -0.31153846 0 0 Z " fill="#E6DC92" transform="translate(35.4375,54.25)"/>
<path d="M0 0 C0.28571429 7.42857143 0.28571429 7.42857143 -2 11 C-2.78375 10.979375 -3.5675 10.95875 -4.375 10.9375 C-6.98114961 10.81315937 -6.98114961 10.81315937 -9 12 C-4.33333333 0 -4.33333333 0 0 0 Z " fill="#856D3F" transform="translate(14,12)"/>
<path d="M0 0 C0.99 0.33 1.98 0.66 3 1 C2.67 6.94 2.34 12.88 2 19 C1.01 18.67 0.02 18.34 -1 18 C-1.02684312 15.18743719 -1.04676188 12.37512759 -1.0625 9.5625 C-1.07087891 8.76005859 -1.07925781 7.95761719 -1.08789062 7.13085938 C-1.0965143 5.08704779 -1.0522815 3.04316098 -1 1 C-0.67 0.67 -0.34 0.34 0 0 Z " fill="#AA7D3E" transform="translate(46,38)"/>
<path d="M0 0 C3.3 0 6.6 0 10 0 C10.25 6.625 10.25 6.625 8 10 C8 8.35 8 6.7 8 5 C5.69 5.33 3.38 5.66 1 6 C0.67 4.02 0.34 2.04 0 0 Z " fill="#D3C280" transform="translate(147,15)"/>
<path d="M0 0 C0.66 0.33 1.32 0.66 2 1 C2 4.96 2 8.92 2 13 C0.02 13.99 0.02 13.99 -2 15 C-2 10.71 -2 6.42 -2 2 C-1.34 2 -0.68 2 0 2 C0 1.34 0 0.68 0 0 Z " fill="#BEA765" transform="translate(41,42)"/>
<path d="M0 0 C0.99 0.33 1.98 0.66 3 1 C3 5.29 3 9.58 3 14 C2.01 14.33 1.02 14.66 0 15 C-1.09651823 11.58860997 -0.94215473 8.79344419 -0.5625 5.25 C-0.46066406 4.26515625 -0.35882813 3.2803125 -0.25390625 2.265625 C-0.17011719 1.51796875 -0.08632813 0.7703125 0 0 Z " fill="#BCA367" transform="translate(40,15)"/>
<path d="M0 0 C1.32 0 2.64 0 4 0 C4 3.96 4 7.92 4 12 C2.68 12 1.36 12 0 12 C0 8.04 0 4.08 0 0 Z " fill="#9F854A" transform="translate(89,55)"/>
<path d="M0 0 C2.31 0.66 4.62 1.32 7 2 C7.93423645 5.01031744 8.04449911 5.86650268 7 9 C4.69 8.34 2.38 7.68 0 7 C0 6.34 0 5.68 0 5 C0.66 5 1.32 5 2 5 C2 4.34 2 3.68 2 3 C1.34 2.67 0.68 2.34 0 2 C0 1.34 0 0.68 0 0 Z " fill="#B1925D" transform="translate(39,6)"/>
<path d="M0 0 C0.99 0.33 1.98 0.66 3 1 C2.34 1 1.68 1 1 1 C1.10964677 5.43801996 1.24033154 9.87517436 1.375 14.3125 C1.42140625 16.20645508 1.42140625 16.20645508 1.46875 18.13867188 C1.50742188 19.34716797 1.54609375 20.55566406 1.5859375 21.80078125 C1.6173584 22.91622314 1.6487793 24.03166504 1.68115234 25.1809082 C1.805249 28.20368786 1.805249 28.20368786 4 31 C1.525 30.01 1.525 30.01 -1 29 C-0.67 19.43 -0.34 9.86 0 0 Z " fill="#C9B06F" transform="translate(163,8)"/>
<path d="M0 0 C1.32 0.33 2.64 0.66 4 1 C4 4.3 4 7.6 4 11 C2.68 11.33 1.36 11.66 0 12 C0 8.04 0 4.08 0 0 Z " fill="#B9A869" transform="translate(165,55)"/>
<path d="M0 0 C0.33 0 0.66 0 1 0 C1 3.96 1 7.92 1 12 C1.66 12.33 2.32 12.66 3 13 C2.67 14.65 2.34 16.3 2 18 C0.02 17.34 -1.96 16.68 -4 16 C-3.67 15.34 -3.34 14.68 -3 14 C-2.34 14 -1.68 14 -1 14 C-0.67 9.38 -0.34 4.76 0 0 Z " fill="#A38044" transform="translate(19,45)"/>
<path d="M0 0 C1.37478516 0.01740234 1.37478516 0.01740234 2.77734375 0.03515625 C3.69644531 0.04417969 4.61554688 0.05320312 5.5625 0.0625 C6.27277344 0.07410156 6.98304688 0.08570313 7.71484375 0.09765625 C7.71484375 0.42765625 7.71484375 0.75765625 7.71484375 1.09765625 C5.07484375 1.09765625 2.43484375 1.09765625 -0.28515625 1.09765625 C0.04484375 3.73765625 0.37484375 6.37765625 0.71484375 9.09765625 C0.38484375 9.09765625 0.05484375 9.09765625 -0.28515625 9.09765625 C-0.61515625 12.72765625 -0.94515625 16.35765625 -1.28515625 20.09765625 C-1.61515625 20.09765625 -1.94515625 20.09765625 -2.28515625 20.09765625 C-2.48110301 16.95228857 -2.66549635 13.80635011 -2.84765625 10.66015625 C-2.90373047 9.76232422 -2.95980469 8.86449219 -3.01757812 7.93945312 C-3.06591797 7.08544922 -3.11425781 6.23144531 -3.1640625 5.3515625 C-3.21119385 4.56080322 -3.2583252 3.77004395 -3.30688477 2.95532227 C-3.27401322 0.14498971 -2.78726308 0.11911381 0 0 Z " fill="#E7D88E" transform="translate(148.28515625,15.90234375)"/>
<path d="M0 0 C1.99954746 -0.04254356 4.00041636 -0.04080783 6 0 C7 1 7 1 7.09765625 3.28515625 C7.08605469 4.20167969 7.07445312 5.11820313 7.0625 6.0625 C7.05347656 6.98160156 7.04445312 7.90070312 7.03515625 8.84765625 C7.02355469 9.55792969 7.01195312 10.26820312 7 11 C6.01 11.495 6.01 11.495 5 12 C5 9.36 5 6.72 5 4 C1.52859548 4.76429774 1.52859548 4.76429774 0 9 C0 6.03 0 3.06 0 0 Z " fill="#CECC89" transform="translate(137,55)"/>
<path d="M0 0 C0.33 0 0.66 0 1 0 C1.66 5.28 2.32 10.56 3 16 C2.34 16.33 1.68 16.66 1 17 C0.34 13.04 -0.32 9.08 -1 5 C-3.64 5 -6.28 5 -9 5 C-9.33 4.34 -9.66 3.68 -10 3 C-7.36 3.33 -4.72 3.66 -2 4 C-1.34 2.68 -0.68 1.36 0 0 Z " fill="#E8DE92" transform="translate(139,34)"/>
<path d="M0 0 C2.97 0.495 2.97 0.495 6 1 C4.63016497 4.16115776 4.0109362 4.9927092 1 7 C-1.1875 6.625 -1.1875 6.625 -3 6 C-2.01 4.02 -1.02 2.04 0 0 Z " fill="#C4B06F" transform="translate(22,7)"/>
<path d="M0 0 C0.33 0.99 0.66 1.98 1 3 C1.66 3 2.32 3 3 3 C1.48328036 7.55015893 -2.16891053 9.50057264 -6 12 C-6.33 11.34 -6.66 10.68 -7 10 C-6.2884375 9.38125 -6.2884375 9.38125 -5.5625 8.75 C-3.83733482 6.817815 -3.43415125 5.51807725 -3 3 C-2.34 3 -1.68 3 -1 3 C-0.67 2.01 -0.34 1.02 0 0 Z " fill="#9C7D47" transform="translate(54,51)"/>
<path d="M0 0 C1.98 0 3.96 0 6 0 C6 1.98 6 3.96 6 6 C4.02 6 2.04 6 0 6 C0 4.02 0 2.04 0 0 Z " fill="#AC8B49" transform="translate(176,8)"/>
<path d="M0 0 C0.99 0.33 1.98 0.66 3 1 C2.34 1 1.68 1 1 1 C1.20625 2.093125 1.4125 3.18625 1.625 4.3125 C2 8 2 8 0 11 C-0.66 11 -1.32 11 -2 11 C-2.05399736 9.54207116 -2.09279177 8.08357288 -2.125 6.625 C-2.15980469 5.40683594 -2.15980469 5.40683594 -2.1953125 4.1640625 C-2 2 -2 2 0 0 Z " fill="#81724B" transform="translate(191,55)"/>
<path d="M0 0 C2.97 0.495 2.97 0.495 6 1 C6 1.99 6 2.98 6 4 C6.99 4.66 7.98 5.32 9 6 C6.69 6.33 4.38 6.66 2 7 C0.5393715 4.35261084 0 3.10551666 0 0 Z " fill="#B9A263" transform="translate(20,58)"/>
<path d="M0 0 C0.33 0 0.66 0 1 0 C1.96205088 6.37358711 2.10655578 12.55929529 2 19 C1.34 19 0.68 19 0 19 C0 18.34 0 17.68 0 17 C-0.99 16.67 -1.98 16.34 -3 16 C-2.34 15.67 -1.68 15.34 -1 15 C-0.68758629 12.45058627 -0.48696579 9.99638487 -0.375 7.4375 C-0.33632813 6.72658203 -0.29765625 6.01566406 -0.2578125 5.28320312 C-0.16328217 3.52257575 -0.08054183 1.76132272 0 0 Z " fill="#9C6830" transform="translate(48,13)"/>
<path d="M0 0 C0.99 0.66 1.98 1.32 3 2 C3 3.32 3 4.64 3 6 C1.35 6 -0.3 6 -2 6 C-2 5.34 -2 4.68 -2 4 C-3.32 3.67 -4.64 3.34 -6 3 C-4.02 2.01 -2.04 1.02 0 0 Z " fill="#936832" transform="translate(195,15)"/>
<path d="M0 0 C0.99 0 1.98 0 3 0 C3 3.63 3 7.26 3 11 C2.01 11 1.02 11 0 11 C0.33 9.35 0.66 7.7 1 6 C0.34 5.67 -0.32 5.34 -1 5 C-1 4.34 -1 3.68 -1 3 C-0.34 3 0.32 3 1 3 C0.67 2.01 0.34 1.02 0 0 Z " fill="#917E52" transform="translate(180,55)"/>
<path d="M0 0 C0.33 0 0.66 0 1 0 C1 2.64 1 5.28 1 8 C1.99 8 2.98 8 4 8 C4 5.69 4 3.38 4 1 C4.33 1 4.66 1 5 1 C5.87890625 7.15234375 5.87890625 7.15234375 6 9 C5 10 5 10 1.4375 10.0625 C0.303125 10.041875 -0.83125 10.02125 -2 10 C-1.34 9.67 -0.68 9.34 0 9 C0 6.03 0 3.06 0 0 Z " fill="#DFD181" transform="translate(115,57)"/>
<path d="M0 0 C0.66 0.33 1.32 0.66 2 1 C1.814375 1.639375 1.62875 2.27875 1.4375 2.9375 C1.2209375 3.9584375 1.2209375 3.9584375 1 5 C1.33 5.33 1.66 5.66 2 6 C2.04063832 7.66617115 2.042721 9.33388095 2 11 C1.01 11.495 1.01 11.495 0 12 C-2 10 -2 10 -2.01171875 8.125 C-1.90472656 7.42375 -1.79773438 6.7225 -1.6875 6 C-1.58824219 5.29875 -1.48898438 4.5975 -1.38671875 3.875 C-1 2 -1 2 0 0 Z " fill="#AC874A" transform="translate(179,55)"/>
<path d="M0 0 C2.31 0.33 4.62 0.66 7 1 C7 3.64 7 6.28 7 9 C6.34 8.67 5.68 8.34 5 8 C5 6.68 5 5.36 5 4 C4.01 4 3.02 4 2 4 C2 3.34 2 2.68 2 2 C1.34 2 0.68 2 0 2 C0 1.34 0 0.68 0 0 Z " fill="#BEB175" transform="translate(151,55)"/>
<path d="M0 0 C2.32579101 3.48868651 2.41865457 4.89718519 2 9 C0.5 11.375 0.5 11.375 -1 13 C-1.99 12.67 -2.98 12.34 -4 12 C-3.525625 11.505 -3.05125 11.01 -2.5625 10.5 C-0.37832093 7.00531349 -0.34086089 4.09033064 0 0 Z " fill="#7E653A" transform="translate(59,32)"/>
<path d="M0 0 C0.33 0.99 0.66 1.98 1 3 C2.32 3 3.64 3 5 3 C5 4.32 5 5.64 5 7 C3.33388095 7.042721 1.66617115 7.04063832 0 7 C-1 6 -1 6 -1.125 3.5 C-1 1 -1 1 0 0 Z " fill="#7E6B3C" transform="translate(8,45)"/>
<path d="M0 0 C0 1.98 0 3.96 0 6 C-1.65 6 -3.3 6 -5 6 C-4.625 3.5625 -4.625 3.5625 -4 1 C-2 0 -2 0 0 0 Z " fill="#C6B170" transform="translate(43,32)"/>
<path d="M0 0 C1.32 0.66 2.64 1.32 4 2 C3.01 2 2.02 2 1 2 C1.99 2.66 2.98 3.32 4 4 C3.67 4.99 3.34 5.98 3 7 C2.67 6.34 2.34 5.68 2 5 C0.35 5.33 -1.3 5.66 -3 6 C-3 4.68 -3 3.36 -3 2 C-2.01 1.34 -1.02 0.68 0 0 Z " fill="#625333" transform="translate(7,22)"/>
<path d="M0 0 C0.33 0.66 0.66 1.32 1 2 C1.99 2.33 2.98 2.66 4 3 C3.67 3.66 3.34 4.32 3 5 C2.34 5 1.68 5 1 5 C0.34 6.32 -0.32 7.64 -1 9 C-1.33 8.34 -1.66 7.68 -2 7 C-2.66 6.67 -3.32 6.34 -4 6 C-3.01 5.34 -2.02 4.68 -1 4 C-0.27617533 1.94074861 -0.27617533 1.94074861 0 0 Z " fill="#CDBA79" transform="translate(38,6)"/>
<path d="M0 0 C0.721875 0.350625 1.44375 0.70125 2.1875 1.0625 C5.3122705 2.10409017 6.88161996 1.89096572 10 1 C9.67 1.99 9.34 2.98 9 4 C5.625 4.625 5.625 4.625 2 5 C1.34 4.34 0.68 3.68 0 3 C0 2.01 0 1.02 0 0 Z " fill="#A8935D" transform="translate(34,61)"/>
<path d="M0 0 C0 0.99 0 1.98 0 3 C-1.32 3 -2.64 3 -4 3 C-4 3.99 -4 4.98 -4 6 C-4.66 6 -5.32 6 -6 6 C-6.33 4.35 -6.66 2.7 -7 1 C-4 0 -4 0 0 0 Z " fill="#B9A364" transform="translate(107,55)"/>
<path d="M0 0 C1.5 1.3125 1.5 1.3125 3 3 C3 3.99 3 4.98 3 6 C2.34 6 1.68 6 1 6 C1 8.31 1 10.62 1 13 C0.67 13 0.34 13 0 13 C-0.66 9.37 -1.32 5.74 -2 2 C-1.34 2 -0.68 2 0 2 C0 1.34 0 0.68 0 0 Z " fill="#E5DA92" transform="translate(34,38)"/>
<path d="M0 0 C0.66 0 1.32 0 2 0 C3.1577506 3.47325181 3.06866652 6.36067448 3 10 C2.01 9.34 1.02 8.68 0 8 C-0.40843923 5.28796348 -0.13336867 2.7562858 0 0 Z " fill="#876B38" transform="translate(6,33)"/>
<path d="M0 0 C2.31 0 4.62 0 7 0 C7 0.99 7 1.98 7 3 C4.36 3 1.72 3 -1 3 C-0.67 2.01 -0.34 1.02 0 0 Z " fill="#C4A25C" transform="translate(166,34)"/>
<path d="M0 0 C0.25 6.625 0.25 6.625 -2 10 C-2.66 7.69 -3.32 5.38 -4 3 C-1.125 0 -1.125 0 0 0 Z " fill="#9B8147" transform="translate(14,12)"/>
<path d="M0 0 C0.66 0 1.32 0 2 0 C2.33 1.65 2.66 3.3 3 5 C1.68 5.33 0.36 5.66 -1 6 C-1.625 4.125 -1.625 4.125 -2 2 C-1.34 1.34 -0.68 0.68 0 0 Z " fill="#F0EBA1" transform="translate(32,28)"/>
<path d="M0 0 C0.185625 1.2065625 0.185625 1.2065625 0.375 2.4375 C0.58125 3.283125 0.7875 4.12875 1 5 C1.66 5.33 2.32 5.66 3 6 C2.67 7.32 2.34 8.64 2 10 C1.16094435 8.87926138 0.32892169 7.75325453 -0.5 6.625 C-0.9640625 5.99851562 -1.428125 5.37203125 -1.90625 4.7265625 C-3 3 -3 3 -3 1 C-1 0 -1 0 0 0 Z " fill="#867147" transform="translate(7,46)"/>
<path d="M0 0 C0.66 0.33 1.32 0.66 2 1 C1.67 2.32 1.34 3.64 1 5 C-1.31 5 -3.62 5 -6 5 C-6.33 4.34 -6.66 3.68 -7 3 C-4.69 3 -2.38 3 0 3 C0 2.01 0 1.02 0 0 Z " fill="#959064" transform="translate(173,34)"/>
<path d="M0 0 C0.66 0 1.32 0 2 0 C2 2.64 2 5.28 2 8 C1.34 8 0.68 8 0 8 C-0.38063221 5.6739143 -0.71269945 3.33944736 -1 1 C-0.67 0.67 -0.34 0.34 0 0 Z " fill="#585331" transform="translate(3,33)"/>
<path d="M0 0 C1.32 0 2.64 0 4 0 C4 2.31 4 4.62 4 7 C3.34 7 2.68 7 2 7 C2 5.68 2 4.36 2 3 C1.34 3 0.68 3 0 3 C0 2.01 0 1.02 0 0 Z " fill="#9B9061" transform="translate(103,58)"/>
<path d="M0 0 C0 2.33333333 0 4.66666667 0 7 C-0.99 7 -1.98 7 -3 7 C-3.33 5.35 -3.66 3.7 -4 2 C-2.68 1.34 -1.36 0.68 0 0 Z " fill="#DFD88F" transform="translate(31,11)"/>
<path d="M0 0 C1.2065625 0.0309375 1.2065625 0.0309375 2.4375 0.0625 C2.4375 1.0525 2.4375 2.0425 2.4375 3.0625 C0.4575 3.3925 -1.5225 3.7225 -3.5625 4.0625 C-3.5625 0.08689024 -3.5625 0.08689024 0 0 Z " fill="#C3B57F" transform="translate(34.5625,4.9375)"/>
<path d="M0 0 C2.36841312 1.57894208 4.06745228 2.9754262 6 5 C4.35 5.66 2.7 6.32 1 7 C-0.0625 4.625 -0.0625 4.625 -1 2 C-0.67 1.34 -0.34 0.68 0 0 Z " fill="#D3C481" transform="translate(26,59)"/>
<path d="M0 0 C0.99 0 1.98 0 3 0 C3.33 0.99 3.66 1.98 4 3 C3.67 3.66 3.34 4.32 3 5 C1.68 4.67 0.36 4.34 -1 4 C-0.67 2.68 -0.34 1.36 0 0 Z " fill="#F0EA9E" transform="translate(31,20)"/>
<path d="M0 0 C-1.75 4.875 -1.75 4.875 -4 6 C-4 4.35 -4 2.7 -4 1 C-4.66 0.67 -5.32 0.34 -6 0 C-3.50907189 -1.24546405 -2.58919267 -0.7767578 0 0 Z " fill="#D9CD93" transform="translate(38,19)"/>
<path d="M0 0 C1.98 0 3.96 0 6 0 C6 0.99 6 1.98 6 3 C4.02 3.33 2.04 3.66 0 4 C0 2.68 0 1.36 0 0 Z " fill="#DDC87E" transform="translate(148,17)"/>
<path d="M0 0 C1.32 0 2.64 0 4 0 C4 1.65 4 3.3 4 5 C3.01 5 2.02 5 1 5 C0.67 3.35 0.34 1.7 0 0 Z " fill="#896230" transform="translate(192,56)"/>
<path d="M0 0 C0.33 0 0.66 0 1 0 C1.12375 1.093125 1.2475 2.18625 1.375 3.3125 C1.75464801 7.07381802 1.75464801 7.07381802 4 10 C1.525 9.01 1.525 9.01 -1 8 C-0.67 5.36 -0.34 2.72 0 0 Z " fill="#B3B07D" transform="translate(163,29)"/>
<path d="M0 0 C0.99 0 1.98 0 3 0 C3.125 2.875 3.125 2.875 3 6 C2.34 6.66 1.68 7.32 1 8 C0.67 5.36 0.34 2.72 0 0 Z " fill="#83663B" transform="translate(56,24)"/>
<path d="M0 0 C1.98 0.99 1.98 0.99 4 2 C4 5.3 4 8.6 4 12 C3.67 12 3.34 12 3 12 C3 9.03 3 6.06 3 3 C2.01 2.67 1.02 2.34 0 2 C0 1.34 0 0.68 0 0 Z " fill="#8F6C38" transform="translate(46,9)"/>
<path d="M0 0 C0.66 0 1.32 0 2 0 C2 1.98 2 3.96 2 6 C0.68 5.67 -0.64 5.34 -2 5 C-1.34 3.35 -0.68 1.7 0 0 Z " fill="#B59554" transform="translate(21,8)"/>
<path d="" fill="#000000" transform="translate(0,0)"/>
</svg>
